<?xml version="1.0" encoding="iso-8859-1"?>
<!-- Generator: Adobe Illustrator 16.0.0, SVG Export Plug-In . SVG Version: 6.00 Build 0)  -->
<!DOCTYPE svg PUBLIC "-//W3C//DTD SVG 1.1//EN" "http://www.w3.org/Graphics/SVG/1.1/DTD/svg11.dtd">
<svg version="1.1" id="Capa_1" xmlns="http://www.w3.org/2000/svg" xmlns:xlink="http://www.w3.org/1999/xlink" x="0px" y="0px"
	 width="480.102px" height="480.102px" viewBox="0 0 480.102 480.102" style="enable-background:new 0 0 480.102 480.102;"
	 xml:space="preserve">
<g>
	<path d="M87.103,260.623l4.7-29.899c57.9-14.101,61.1,31.5,61.1,31.5l0.3-0.3c0.1,0.8,0.3,1.6,0.5,2.399l17.1,61l-51.6,32.9
		c-4.7,3-7.8,8-8.4,13.6c-3.2,30.601,7.8,40.301,17.6,43.101c1.7,0.5,3.4,0.7,5.1,0.7c8,0,15.4-5.301,17.7-13.4
		c1.8-6.3,0.1-12.7-3.9-17.3c0-0.3,0-0.601-0.1-0.9l54.9-35c6.9-4.4,10-12.7,7.8-20.5l-17-60.8l42.2,23.5l-9.5,70.1
		c-0.8,6.2,1.5,12.4,6.3,16.5l17.699,15.101c3.5,3,7.7,4.399,12,4.399c5.2,0,10.4-2.199,14.101-6.5c6.6-7.8,5.7-19.399-2.101-26
		l-10-8.5l9.801-72.5c1-7.5-2.7-14.899-9.301-18.6l-80.099-44.7c-32.1-40.2-59.7-43.6-75.1-42.9l2.3-37.3l-0.8-2.399
		c-2.2-6.601-9.4-28.7-12.4-34.5c-3.4-6.5-11.3-9-17.8-5.601c-6.5,3.4-9,11.3-5.6,17.8c1.4,2.7,6.1,16.2,10,28.101l-2.8,45.5
		c-3.6,3.6-6.7,7.3-8.6,9.6c-2.1,1.9-3.7,4.601-4.2,7.7l-3.9,24.7l-50.3-6.2c-7.2-0.9-13.8,4.2-14.7,11.4
		c-0.9,7.199,4.2,13.8,11.4,14.699L87.103,260.623z"/>
	<circle cx="367.902" cy="89.823" r="24.2"/>
	<path d="M415.803,130.023c-2.3-2.6-5.5-4.1-8.7-4.3c-16.1-4.3-52.2,0.7-61.2,2c-1.199,0.2-2.199,1.3-2.399,2.399
		c-2.9,12.9-19.601,35.5-34.2,53.2l-122.6-90.1l-15.5-21.2c-6-8.2-17.6-10-25.8-4c-8.2,6-10,17.6-4,25.8l17.2,23.5
		c1.1,1.5,2.4,2.9,4,4l133.6,98.2c2.5,1.8,5.3,3,8.199,3.4c-7.1,21.8-16.499,53.199-19.499,73.399c-4.5,31,18.199,61.4,30.499,75.3
		c-0.1,0.2-0.1,0.4-0.199,0.601c-6.5,3.2-10.7,10.1-10.2,17.7c0.6,9.8,8.8,17.2,18.399,17.2c0.4,0,0.801,0,1.2,0
		c7-0.5,19.8-4.301,26-24.7c2.2-7.301,2.9-14.2,2.9-15c0.5-5.601-1.601-11-5.601-14.9c-9.699-9.4-29.1-34.2-26.6-50.8
		c2.8-19.3,13.1-52.4,19.9-72.8c4.6-5.101,11.699-13.2,19.8-22.601l7.899,25.5c1.7,5.7,7,9.3,12.601,9.3c1.3,0,2.6-0.199,3.899-0.6
		c7-2.1,10.9-9.5,8.7-16.5l-12.899-42c7.699-9.6,15.1-19.3,20.899-27.7l29.2,32.8l23.4,57.2c2.1,5.101,7,8.2,12.199,8.2
		c1.7,0,3.301-0.3,5-1c6.7-2.8,10-10.4,7.2-17.2l-25.1-61.399L415.803,130.023z"/>
	<circle cx="46.503" cy="172.423" r="27.1"/>
</g>
<g>
</g>
<g>
</g>
<g>
</g>
<g>
</g>
<g>
</g>
<g>
</g>
<g>
</g>
<g>
</g>
<g>
</g>
<g>
</g>
<g>
</g>
<g>
</g>
<g>
</g>
<g>
</g>
<g>
</g>
</svg>
